<svg width="328" height="216" viewBox="0 0 328 216" fill="none" xmlns="http://www.w3.org/2000/svg">
<g filter="url(#filter0_d_107_201)">
<g clip-path="url(#clip0_107_201)">
<rect x="24" y="20" width="280" height="168" rx="16" fill="#111827"/>
<ellipse cx="238.501" cy="90.5011" rx="67.0078" ry="104.486" transform="rotate(-45 238.501 90.5011)" fill="#A855F7"/>
<path opacity="0.5" d="M71.3136 39.5681C48.462 28.6708 25.702 24.2368 6.12444 26.8681C-13.4531 29.4995 -28.8996 39.0686 -38.1172 54.2762C-47.3348 69.4837 -49.877 89.5926 -45.3984 111.872C-40.9199 134.152 -29.6376 157.522 -13.0839 178.81C3.46991 200.097 24.493 218.27 47.1305 230.861C69.768 243.452 92.9229 249.85 113.451 249.187C133.978 248.524 150.884 240.832 161.873 227.155C172.861 213.478 177.399 194.479 174.87 172.739L64 137.682L71.3136 39.5681Z" fill="#A855F7"/>
<ellipse cx="192.96" cy="31.9602" rx="38.7249" ry="60.3263" transform="rotate(-45 192.96 31.9602)" fill="#2DD4BF" fill-opacity="0.8"/>
<ellipse cx="24" cy="164" rx="38.7249" ry="60.3263" transform="rotate(-45 24 164)" fill="#2DD4BF" fill-opacity="0.64"/>
<ellipse cx="268.36" cy="136.723" rx="64.7259" ry="62.4069" transform="rotate(-45 268.36 136.723)" fill="#2DD4BF"/>
<g filter="url(#filter1_b_107_201)">
<rect x="24" y="20" width="280" height="168" fill="#111827" fill-opacity="0.4"/>
</g>
<path d="M50.0104 117.952H52.6824V115.648C52.6824 115.349 52.6931 114.997 52.7144 114.592C52.7358 114.187 52.7518 113.835 52.7624 113.536H52.6984C52.5704 113.803 52.4371 114.064 52.2984 114.32C52.1598 114.576 52.0158 114.843 51.8664 115.12L50.0104 117.952ZM52.6824 122V119.376H48.1864V118.128L52.2184 111.824H54.4104V117.952H55.6904V119.376H54.4104V122H52.6824Z" fill="#F9FAFB"/>
<path d="M62.5864 122C62.6504 120.795 62.7784 119.717 62.9704 118.768C63.1624 117.808 63.4558 116.896 63.8504 116.032C64.2451 115.168 64.7678 114.283 65.4184 113.376H60.6024V111.824H67.4344V112.944C66.8371 113.68 66.3518 114.384 65.9784 115.056C65.6158 115.728 65.3278 116.411 65.1144 117.104C64.9118 117.787 64.7624 118.528 64.6664 119.328C64.5704 120.117 64.5011 121.008 64.4584 122H62.5864Z" fill="#F9FAFB"/>
<path d="M73.0824 122V120.496H75.3544V113.808H73.4824V112.656C73.9838 112.56 74.4211 112.448 74.7944 112.32C75.1678 112.181 75.5144 112.016 75.8344 111.824H77.2104V120.496H79.2104V122H73.0824Z" fill="#F9FAFB"/>
<path d="M88.1864 117.04C87.8984 117.04 87.5944 117.131 87.2744 117.312C86.9544 117.483 86.6504 117.781 86.3624 118.208C86.4584 119.115 86.6771 119.771 87.0184 120.176C87.3598 120.581 87.7758 120.784 88.2664 120.784C88.6931 120.784 89.0504 120.619 89.3384 120.288C89.6371 119.947 89.7864 119.467 89.7864 118.848C89.7864 118.251 89.6424 117.803 89.3544 117.504C89.0771 117.195 88.6878 117.04 88.1864 117.04ZM88.2984 122.192C87.6371 122.192 87.0238 122.016 86.4584 121.664C85.8931 121.312 85.4398 120.768 85.0984 120.032C84.7678 119.296 84.6024 118.357 84.6024 117.216C84.6024 115.893 84.7891 114.827 85.1624 114.016C85.5464 113.195 86.0424 112.592 86.6504 112.208C87.2584 111.824 87.9091 111.632 88.6024 111.632C89.2211 111.632 89.7544 111.744 90.2024 111.968C90.6504 112.192 91.0238 112.464 91.3224 112.784L90.3304 113.904C90.1491 113.68 89.9091 113.499 89.6104 113.36C89.3224 113.211 89.0238 113.136 88.7144 113.136C88.2878 113.136 87.8984 113.253 87.5464 113.488C87.1944 113.723 86.9064 114.117 86.6824 114.672C86.4691 115.216 86.3464 115.957 86.3144 116.896C86.6131 116.523 86.9651 116.229 87.3704 116.016C87.7758 115.803 88.1598 115.696 88.5224 115.696C89.4078 115.696 90.1224 115.957 90.6664 116.48C91.2211 116.992 91.4984 117.781 91.4984 118.848C91.4984 119.52 91.3491 120.107 91.0504 120.608C90.7624 121.109 90.3784 121.499 89.8984 121.776C89.4184 122.053 88.8851 122.192 88.2984 122.192Z" fill="#F9FAFB"/>
<path d="M114.677 122.192C114.016 122.192 113.424 122.075 112.901 121.84C112.378 121.595 111.968 121.264 111.669 120.848C111.37 120.432 111.221 119.947 111.221 119.392C111.221 118.763 111.408 118.235 111.781 117.808C112.154 117.381 112.581 117.04 113.061 116.784V116.72C112.666 116.443 112.33 116.112 112.053 115.728C111.786 115.333 111.653 114.869 111.653 114.336C111.653 113.781 111.786 113.307 112.053 112.912C112.32 112.507 112.682 112.192 113.141 111.968C113.61 111.744 114.138 111.632 114.725 111.632C115.642 111.632 116.368 111.888 116.901 112.4C117.445 112.901 117.717 113.563 117.717 114.384C117.717 114.885 117.573 115.339 117.285 115.744C116.997 116.149 116.688 116.475 116.357 116.72V116.784C116.826 117.051 117.237 117.387 117.589 117.792C117.941 118.197 118.117 118.741 118.117 119.424C118.117 119.947 117.973 120.416 117.685 120.832C117.397 121.248 116.997 121.579 116.485 121.824C115.973 122.069 115.37 122.192 114.677 122.192ZM115.349 116.256C115.626 115.979 115.834 115.696 115.973 115.408C116.122 115.12 116.197 114.816 116.197 114.496C116.197 114.048 116.064 113.68 115.797 113.392C115.53 113.093 115.162 112.944 114.693 112.944C114.298 112.944 113.968 113.067 113.701 113.312C113.434 113.557 113.301 113.899 113.301 114.336C113.301 114.677 113.392 114.965 113.573 115.2C113.754 115.424 114 115.621 114.309 115.792C114.629 115.952 114.976 116.107 115.349 116.256ZM114.709 120.88C115.2 120.88 115.6 120.747 115.909 120.48C116.229 120.203 116.389 119.829 116.389 119.36C116.389 118.987 116.277 118.683 116.053 118.448C115.84 118.213 115.546 118.011 115.173 117.84C114.81 117.659 114.4 117.477 113.941 117.296C113.621 117.531 113.354 117.808 113.141 118.128C112.938 118.448 112.837 118.805 112.837 119.2C112.837 119.701 113.018 120.107 113.381 120.416C113.744 120.725 114.186 120.88 114.709 120.88Z" fill="#F9FAFB"/>
<path d="M126.661 122.192C125.605 122.192 124.762 121.733 124.133 120.816C123.514 119.899 123.205 118.581 123.205 116.864C123.205 115.147 123.514 113.845 124.133 112.96C124.762 112.075 125.605 111.632 126.661 111.632C127.717 111.632 128.554 112.075 129.173 112.96C129.802 113.845 130.117 115.147 130.117 116.864C130.117 118.581 129.802 119.899 129.173 120.816C128.554 121.733 127.717 122.192 126.661 122.192ZM126.661 120.752C126.992 120.752 127.285 120.629 127.541 120.384C127.797 120.128 127.994 119.717 128.133 119.152C128.282 118.587 128.357 117.824 128.357 116.864C128.357 115.904 128.282 115.147 128.133 114.592C127.994 114.037 127.797 113.648 127.541 113.424C127.285 113.189 126.992 113.072 126.661 113.072C126.341 113.072 126.053 113.189 125.797 113.424C125.541 113.648 125.338 114.037 125.189 114.592C125.04 115.147 124.965 115.904 124.965 116.864C124.965 117.824 125.04 118.587 125.189 119.152C125.338 119.717 125.541 120.128 125.797 120.384C126.053 120.629 126.341 120.752 126.661 120.752Z" fill="#F9FAFB"/>
<path d="M138.405 122.192C137.584 122.192 136.89 122.053 136.325 121.776C135.77 121.488 135.312 121.147 134.949 120.752L135.829 119.568C136.138 119.877 136.49 120.144 136.885 120.368C137.28 120.581 137.733 120.688 138.245 120.688C138.8 120.688 139.248 120.555 139.589 120.288C139.941 120.011 140.117 119.632 140.117 119.152C140.117 118.8 140.026 118.496 139.845 118.24C139.674 117.973 139.37 117.771 138.933 117.632C138.506 117.493 137.904 117.424 137.125 117.424V116.08C138.128 116.08 138.821 115.925 139.205 115.616C139.589 115.307 139.781 114.917 139.781 114.448C139.781 114.021 139.648 113.691 139.381 113.456C139.114 113.211 138.746 113.088 138.277 113.088C137.882 113.088 137.52 113.179 137.189 113.36C136.858 113.531 136.538 113.76 136.229 114.048L135.285 112.912C135.722 112.528 136.186 112.219 136.677 111.984C137.178 111.749 137.733 111.632 138.341 111.632C139.322 111.632 140.117 111.867 140.725 112.336C141.333 112.795 141.637 113.456 141.637 114.32C141.637 114.885 141.477 115.365 141.157 115.76C140.848 116.144 140.416 116.443 139.861 116.656V116.72C140.458 116.88 140.96 117.173 141.365 117.6C141.77 118.027 141.973 118.576 141.973 119.248C141.973 119.867 141.808 120.395 141.477 120.832C141.157 121.269 140.725 121.605 140.181 121.84C139.648 122.075 139.056 122.192 138.405 122.192Z" fill="#F9FAFB"/>
<path d="M148.853 114.96C148.853 115.557 148.992 116.011 149.269 116.32C149.557 116.629 149.957 116.784 150.469 116.784C150.768 116.784 151.077 116.693 151.397 116.512C151.728 116.32 152.026 116.016 152.293 115.6C152.197 114.704 151.978 114.053 151.637 113.648C151.296 113.243 150.874 113.04 150.373 113.04C149.957 113.04 149.6 113.205 149.301 113.536C149.002 113.867 148.853 114.341 148.853 114.96ZM150.037 122.192C149.429 122.192 148.901 122.08 148.453 121.856C148.005 121.632 147.626 121.36 147.317 121.04L148.309 119.92C148.501 120.144 148.741 120.331 149.029 120.48C149.328 120.619 149.632 120.688 149.941 120.688C150.368 120.688 150.757 120.571 151.109 120.336C151.461 120.101 151.749 119.712 151.973 119.168C152.197 118.613 152.32 117.867 152.341 116.928C152.042 117.291 151.69 117.579 151.285 117.792C150.88 118.005 150.49 118.112 150.117 118.112C149.242 118.112 148.528 117.856 147.973 117.344C147.429 116.821 147.157 116.027 147.157 114.96C147.157 114.277 147.301 113.691 147.589 113.2C147.888 112.699 148.277 112.315 148.757 112.048C149.248 111.771 149.781 111.632 150.357 111.632C151.018 111.632 151.626 111.808 152.181 112.16C152.746 112.512 153.194 113.056 153.525 113.792C153.866 114.517 154.037 115.451 154.037 116.592C154.037 117.904 153.85 118.976 153.477 119.808C153.104 120.629 152.613 121.232 152.005 121.616C151.397 122 150.741 122.192 150.037 122.192Z" fill="#F9FAFB"/>
<path d="M177.328 122.192C176.272 122.192 175.429 121.733 174.8 120.816C174.181 119.899 173.872 118.581 173.872 116.864C173.872 115.147 174.181 113.845 174.8 112.96C175.429 112.075 176.272 111.632 177.328 111.632C178.384 111.632 179.221 112.075 179.84 112.96C180.469 113.845 180.784 115.147 180.784 116.864C180.784 118.581 180.469 119.899 179.84 120.816C179.221 121.733 178.384 122.192 177.328 122.192ZM177.328 120.752C177.658 120.752 177.952 120.629 178.208 120.384C178.464 120.128 178.661 119.717 178.8 119.152C178.949 118.587 179.024 117.824 179.024 116.864C179.024 115.904 178.949 115.147 178.8 114.592C178.661 114.037 178.464 113.648 178.208 113.424C177.952 113.189 177.658 113.072 177.328 113.072C177.008 113.072 176.72 113.189 176.464 113.424C176.208 113.648 176.005 114.037 175.856 114.592C175.706 115.147 175.632 115.904 175.632 116.864C175.632 117.824 175.706 118.587 175.856 119.152C176.005 119.717 176.208 120.128 176.464 120.384C176.72 120.629 177.008 120.752 177.328 120.752Z" fill="#F9FAFB"/>
<path d="M185.84 122V120.928C186.789 120.011 187.605 119.195 188.288 118.48C188.981 117.755 189.514 117.099 189.888 116.512C190.261 115.915 190.448 115.36 190.448 114.848C190.448 114.315 190.304 113.888 190.016 113.568C189.728 113.248 189.312 113.088 188.768 113.088C188.373 113.088 188.01 113.2 187.68 113.424C187.36 113.648 187.061 113.915 186.784 114.224L185.76 113.2C186.229 112.699 186.714 112.315 187.216 112.048C187.717 111.771 188.314 111.632 189.008 111.632C189.989 111.632 190.768 111.915 191.344 112.48C191.93 113.045 192.224 113.803 192.224 114.752C192.224 115.349 192.053 115.963 191.712 116.592C191.381 117.211 190.933 117.845 190.368 118.496C189.813 119.147 189.2 119.829 188.528 120.544C188.794 120.523 189.082 120.501 189.392 120.48C189.701 120.448 189.978 120.432 190.224 120.432H192.72V122H185.84Z" fill="#F9FAFB"/>
<circle opacity="0.5" cx="201.333" cy="116" r="2" fill="#F9FAFB"/>
<circle opacity="0.5" cx="213.333" cy="116" r="2" fill="#F9FAFB"/>
<circle opacity="0.5" cx="240" cy="116" r="2" fill="#F9FAFB"/>
<circle opacity="0.5" cx="252" cy="116" r="2" fill="#F9FAFB"/>
<circle opacity="0.5" cx="264" cy="116" r="2" fill="#F9FAFB"/>
<circle opacity="0.5" cx="276" cy="116" r="2" fill="#F9FAFB"/>
<path opacity="0.5" d="M51.808 161.168C51.164 161.168 50.5667 161.047 50.016 160.804C49.4653 160.552 48.9893 160.221 48.588 159.81L49.288 158.998C49.6147 159.343 49.9973 159.623 50.436 159.838C50.884 160.043 51.346 160.146 51.822 160.146C52.4287 160.146 52.9 160.011 53.236 159.74C53.572 159.46 53.74 159.096 53.74 158.648C53.74 158.331 53.67 158.079 53.53 157.892C53.3993 157.705 53.2173 157.547 52.984 157.416C52.76 157.285 52.5033 157.155 52.214 157.024L50.898 156.45C50.6087 156.329 50.3193 156.17 50.03 155.974C49.75 155.778 49.512 155.526 49.316 155.218C49.1293 154.91 49.036 154.532 49.036 154.084C49.036 153.617 49.1573 153.202 49.4 152.838C49.652 152.465 49.9973 152.175 50.436 151.97C50.8747 151.755 51.3693 151.648 51.92 151.648C52.4707 151.648 52.9793 151.755 53.446 151.97C53.9127 152.175 54.3093 152.446 54.636 152.782L54.006 153.538C53.726 153.267 53.4133 153.057 53.068 152.908C52.732 152.749 52.3493 152.67 51.92 152.67C51.4067 152.67 50.9913 152.791 50.674 153.034C50.366 153.277 50.212 153.603 50.212 154.014C50.212 154.303 50.2867 154.546 50.436 154.742C50.5947 154.929 50.7907 155.083 51.024 155.204C51.2573 155.325 51.4953 155.437 51.738 155.54L53.04 156.1C53.3947 156.249 53.712 156.431 53.992 156.646C54.2813 156.851 54.51 157.108 54.678 157.416C54.846 157.715 54.93 158.093 54.93 158.55C54.93 159.035 54.804 159.479 54.552 159.88C54.3 160.272 53.9407 160.585 53.474 160.818C53.0073 161.051 52.452 161.168 51.808 161.168ZM59.3845 161.168C58.7778 161.168 58.2272 161.028 57.7325 160.748C57.2378 160.459 56.8458 160.048 56.5565 159.516C56.2672 158.984 56.1225 158.349 56.1225 157.612C56.1225 156.865 56.2672 156.226 56.5565 155.694C56.8552 155.162 57.2378 154.751 57.7045 154.462C58.1712 154.173 58.6612 154.028 59.1745 154.028C60.0425 154.028 60.7098 154.317 61.1765 154.896C61.6525 155.475 61.8905 156.249 61.8905 157.22C61.8905 157.341 61.8858 157.463 61.8765 157.584C61.8765 157.696 61.8672 157.794 61.8485 157.878H57.2565C57.3032 158.597 57.5272 159.171 57.9285 159.6C58.3392 160.029 58.8712 160.244 59.5245 160.244C59.8512 160.244 60.1498 160.197 60.4205 160.104C60.7005 160.001 60.9665 159.871 61.2185 159.712L61.6245 160.468C61.3352 160.655 61.0038 160.818 60.6305 160.958C60.2665 161.098 59.8512 161.168 59.3845 161.168ZM57.2425 157.052H60.8825C60.8825 156.361 60.7332 155.839 60.4345 155.484C60.1452 155.12 59.7345 154.938 59.2025 154.938C58.7265 154.938 58.2972 155.125 57.9145 155.498C57.5412 155.862 57.3172 156.38 57.2425 157.052ZM65.5598 161.168C64.8412 161.168 64.3138 160.944 63.9778 160.496C63.6418 160.039 63.4738 159.376 63.4738 158.508V154.196H64.6358V158.354C64.6358 158.989 64.7338 159.451 64.9298 159.74C65.1352 160.029 65.4618 160.174 65.9098 160.174C66.2645 160.174 66.5772 160.085 66.8478 159.908C67.1278 159.721 67.4265 159.427 67.7438 159.026V154.196H68.8918V161H67.9398L67.8418 159.936H67.7998C67.4825 160.309 67.1465 160.608 66.7918 160.832C66.4372 161.056 66.0265 161.168 65.5598 161.168ZM73.9898 161V154.196H74.9418L75.0398 155.176H75.0818C75.4085 154.849 75.7538 154.579 76.1178 154.364C76.4818 154.14 76.8971 154.028 77.3638 154.028C78.0825 154.028 78.6051 154.257 78.9318 154.714C79.2678 155.162 79.4358 155.82 79.4358 156.688V161H78.2878V156.842C78.2878 156.207 78.1851 155.745 77.9798 155.456C77.7745 155.167 77.4478 155.022 76.9998 155.022C76.6545 155.022 76.3418 155.111 76.0618 155.288C75.7911 155.465 75.4831 155.727 75.1378 156.072V161H73.9898ZM84.292 161.168C83.7414 161.168 83.2234 161.028 82.738 160.748C82.262 160.468 81.8747 160.062 81.576 159.53C81.2867 158.998 81.142 158.359 81.142 157.612C81.142 156.847 81.2867 156.198 81.576 155.666C81.8747 155.134 82.262 154.728 82.738 154.448C83.2234 154.168 83.7414 154.028 84.292 154.028C84.852 154.028 85.37 154.168 85.846 154.448C86.322 154.728 86.7047 155.134 86.994 155.666C87.2927 156.198 87.442 156.847 87.442 157.612C87.442 158.359 87.2927 158.998 86.994 159.53C86.7047 160.062 86.322 160.468 85.846 160.748C85.37 161.028 84.852 161.168 84.292 161.168ZM84.292 160.216C84.88 160.216 85.3514 159.978 85.706 159.502C86.07 159.017 86.252 158.387 86.252 157.612C86.252 156.828 86.07 156.193 85.706 155.708C85.3514 155.223 84.88 154.98 84.292 154.98C83.7134 154.98 83.242 155.223 82.878 155.708C82.514 156.193 82.332 156.828 82.332 157.612C82.332 158.387 82.514 159.017 82.878 159.502C83.242 159.978 83.7134 160.216 84.292 160.216ZM89.2339 161V154.196H90.1859L90.2839 155.176H90.3259C90.6246 154.849 90.9513 154.579 91.3059 154.364C91.6606 154.14 92.0386 154.028 92.4399 154.028C92.9626 154.028 93.3686 154.145 93.6579 154.378C93.9566 154.602 94.1759 154.919 94.3159 155.33C94.6706 154.947 95.0299 154.635 95.3939 154.392C95.7579 154.149 96.1453 154.028 96.5559 154.028C97.2559 154.028 97.7739 154.257 98.1099 154.714C98.4553 155.162 98.6279 155.82 98.6279 156.688V161H97.4799V156.842C97.4799 156.207 97.3773 155.745 97.1719 155.456C96.9666 155.167 96.6493 155.022 96.2199 155.022C95.7159 155.022 95.1466 155.372 94.5119 156.072V161H93.3639V156.842C93.3639 156.207 93.2613 155.745 93.0559 155.456C92.8506 155.167 92.5286 155.022 92.0899 155.022C91.5859 155.022 91.0166 155.372 90.3819 156.072V161H89.2339ZM103.599 161.168C102.993 161.168 102.442 161.028 101.947 160.748C101.453 160.459 101.061 160.048 100.771 159.516C100.482 158.984 100.337 158.349 100.337 157.612C100.337 156.865 100.482 156.226 100.771 155.694C101.07 155.162 101.453 154.751 101.919 154.462C102.386 154.173 102.876 154.028 103.389 154.028C104.257 154.028 104.925 154.317 105.391 154.896C105.867 155.475 106.105 156.249 106.105 157.22C106.105 157.341 106.101 157.463 106.091 157.584C106.091 157.696 106.082 157.794 106.063 157.878H101.471C101.518 158.597 101.742 159.171 102.143 159.6C102.554 160.029 103.086 160.244 103.739 160.244C104.066 160.244 104.365 160.197 104.635 160.104C104.915 160.001 105.181 159.871 105.433 159.712L105.839 160.468C105.55 160.655 105.219 160.818 104.845 160.958C104.481 161.098 104.066 161.168 103.599 161.168ZM101.457 157.052H105.097C105.097 156.361 104.948 155.839 104.649 155.484C104.36 155.12 103.949 154.938 103.417 154.938C102.941 154.938 102.512 155.125 102.129 155.498C101.756 155.862 101.532 156.38 101.457 157.052ZM112.157 161.168C111.588 161.168 111.112 161 110.729 160.664C110.356 160.319 110.169 159.843 110.169 159.236C110.169 158.489 110.501 157.92 111.163 157.528C111.835 157.127 112.895 156.847 114.341 156.688C114.341 156.399 114.299 156.123 114.215 155.862C114.141 155.601 114.001 155.391 113.795 155.232C113.599 155.064 113.315 154.98 112.941 154.98C112.549 154.98 112.181 155.055 111.835 155.204C111.49 155.353 111.182 155.521 110.911 155.708L110.463 154.91C110.781 154.705 111.168 154.509 111.625 154.322C112.092 154.126 112.596 154.028 113.137 154.028C113.968 154.028 114.57 154.285 114.943 154.798C115.317 155.302 115.503 155.979 115.503 156.828V161H114.551L114.453 160.188H114.411C114.094 160.449 113.744 160.678 113.361 160.874C112.988 161.07 112.587 161.168 112.157 161.168ZM112.493 160.244C112.82 160.244 113.128 160.165 113.417 160.006C113.707 159.847 114.015 159.623 114.341 159.334V157.444C113.212 157.584 112.419 157.794 111.961 158.074C111.513 158.354 111.289 158.713 111.289 159.152C111.289 159.535 111.406 159.815 111.639 159.992C111.873 160.16 112.157 160.244 112.493 160.244ZM121.956 163.87V161.448L122.012 160.216C121.741 160.477 121.429 160.701 121.074 160.888C120.729 161.075 120.36 161.168 119.968 161.168C119.119 161.168 118.437 160.86 117.924 160.244C117.411 159.619 117.154 158.741 117.154 157.612C117.154 156.875 117.289 156.24 117.56 155.708C117.84 155.167 118.204 154.751 118.652 154.462C119.109 154.173 119.595 154.028 120.108 154.028C120.5 154.028 120.845 154.098 121.144 154.238C121.443 154.369 121.746 154.569 122.054 154.84H122.082L122.194 154.196H123.118V163.87H121.956ZM120.22 160.202C120.817 160.202 121.396 159.889 121.956 159.264V155.708C121.667 155.447 121.387 155.265 121.116 155.162C120.855 155.05 120.584 154.994 120.304 154.994C119.94 154.994 119.609 155.106 119.31 155.33C119.021 155.545 118.787 155.848 118.61 156.24C118.433 156.623 118.344 157.075 118.344 157.598C118.344 158.41 118.507 159.049 118.834 159.516C119.161 159.973 119.623 160.202 120.22 160.202ZM127.398 161.168C126.679 161.168 126.152 160.944 125.816 160.496C125.48 160.039 125.312 159.376 125.312 158.508V154.196H126.474V158.354C126.474 158.989 126.572 159.451 126.768 159.74C126.973 160.029 127.3 160.174 127.748 160.174C128.102 160.174 128.415 160.085 128.686 159.908C128.966 159.721 129.264 159.427 129.582 159.026V154.196H130.73V161H129.778L129.68 159.936H129.638C129.32 160.309 128.984 160.608 128.63 160.832C128.275 161.056 127.864 161.168 127.398 161.168ZM133.025 161V154.196H134.173V161H133.025ZM133.613 152.796C133.389 152.796 133.202 152.731 133.053 152.6C132.913 152.46 132.843 152.273 132.843 152.04C132.843 151.816 132.913 151.634 133.053 151.494C133.202 151.354 133.389 151.284 133.613 151.284C133.837 151.284 134.019 151.354 134.159 151.494C134.308 151.634 134.383 151.816 134.383 152.04C134.383 152.273 134.308 152.46 134.159 152.6C134.019 152.731 133.837 152.796 133.613 152.796Z" fill="#F9FAFB"/>
<circle opacity="0.5" cx="227" cy="156" r="2" fill="#F9FAFB"/>
<circle opacity="0.5" cx="239" cy="156" r="2" fill="#F9FAFB"/>
<path opacity="0.5" d="M249.182 163.24L251.996 151.06H253.34L250.526 163.24H249.182Z" fill="#F9FAFB"/>
<circle opacity="0.5" cx="264" cy="156" r="2" fill="#F9FAFB"/>
<circle opacity="0.5" cx="276" cy="156" r="2" fill="#F9FAFB"/>
<g opacity="0.8" clip-path="url(#clip1_107_201)">
<path d="M77.6293 57.024L77.3293 55.524H73.9773L73.444 57.0133L70.7573 57.0187C72.0364 53.9429 73.3181 50.8682 74.6027 47.7947C74.8213 47.2733 75.2093 47.008 75.7813 47.0107C76.2187 47.0147 76.932 47.0147 77.9227 47.012L80 57.02L77.6293 57.024ZM74.732 53.4693H76.892L76.0853 49.7093L74.732 53.4693ZM57.4133 47.0093L60.1147 47.012L55.9387 57.0253L53.204 57.0227C52.5163 54.3778 51.8372 51.7306 51.1667 49.0813C51.0333 48.5533 50.7693 48.184 50.2613 48.0093C49.511 47.7579 48.7571 47.517 48 47.2867L48 47.0133H52.316C53.0627 47.0133 53.4987 47.3747 53.6387 48.116C53.78 48.8587 54.1347 50.7493 54.7053 53.788L57.4133 47.0093ZM63.8267 47.012L61.6907 57.0227L59.12 57.02L61.2533 47.0093L63.8267 47.012ZM69.04 46.8267C69.8093 46.8267 70.7787 47.0667 71.336 47.2867L70.8853 49.3627C70.3813 49.16 69.552 48.8867 68.8547 48.896C67.8413 48.9133 67.2147 49.3387 67.2147 49.7467C67.2147 50.4107 68.3027 50.7453 69.4227 51.4707C70.7013 52.2973 70.8693 53.04 70.8533 53.8467C70.836 55.5213 69.4227 57.1733 66.4413 57.1733C65.0813 57.1533 64.5907 57.0387 63.4813 56.6453L63.9507 54.4787C65.08 54.952 65.5587 55.1027 66.524 55.1027C67.408 55.1027 68.1667 54.7453 68.1733 54.1227C68.1787 53.68 67.9067 53.46 66.9147 52.9133C65.9227 52.3653 64.5307 51.6067 64.5493 50.084C64.572 48.1347 66.4187 46.8267 69.0413 46.8267H69.04Z" fill="#F9FAFB"/>
</g>
<g opacity="0.8">
<path d="M268 42.25C266.072 42.25 264.187 42.8218 262.583 43.8932C260.98 44.9645 259.73 46.4873 258.992 48.2688C258.254 50.0504 258.061 52.0108 258.437 53.9021C258.814 55.7934 259.742 57.5307 261.106 58.8943C262.469 60.2579 264.207 61.1865 266.098 61.5627C267.989 61.9389 269.95 61.7458 271.731 61.0078C273.513 60.2699 275.035 59.0202 276.107 57.4168C277.178 55.8134 277.75 53.9284 277.75 52C277.747 49.415 276.719 46.9366 274.891 45.1087C273.063 43.2808 270.585 42.2527 268 42.25ZM268 60.25C266.368 60.25 264.773 59.7661 263.417 58.8596C262.06 57.9531 261.002 56.6646 260.378 55.1571C259.754 53.6496 259.59 51.9908 259.909 50.3905C260.227 48.7902 261.013 47.3202 262.166 46.1664C263.32 45.0126 264.79 44.2268 266.391 43.9085C267.991 43.5902 269.65 43.7536 271.157 44.378C272.665 45.0024 273.953 46.0598 274.86 47.4165C275.766 48.7733 276.25 50.3683 276.25 52C276.248 54.1873 275.378 56.2843 273.831 57.8309C272.284 59.3775 270.187 60.2475 268 60.25ZM265.1 49.3994C265.524 50.2007 265.746 51.0935 265.746 52C265.746 52.9065 265.524 53.7993 265.1 54.6006C265.055 54.6898 264.993 54.7691 264.917 54.8339C264.842 54.8988 264.754 54.9478 264.658 54.9782C264.563 55.0085 264.463 55.0196 264.364 55.0108C264.264 55.002 264.168 54.9734 264.08 54.9267C263.991 54.88 263.913 54.8162 263.85 54.739C263.787 54.6618 263.74 54.5728 263.711 54.4771C263.683 54.3814 263.674 54.281 263.685 54.1818C263.696 54.0826 263.726 53.9866 263.775 53.8994C264.089 53.3155 264.253 52.6629 264.253 52C264.253 51.3371 264.089 50.6845 263.775 50.1006C263.687 49.9253 263.671 49.7224 263.73 49.5355C263.79 49.3486 263.921 49.1925 264.094 49.1008C264.268 49.009 264.47 48.9889 264.658 49.0447C264.846 49.1005 265.005 49.2279 265.1 49.3994ZM270.35 46.3994C271.273 48.1231 271.755 50.0478 271.755 52.0028C271.755 53.9578 271.273 55.8826 270.35 57.6063C270.25 57.7702 270.092 57.8896 269.906 57.9399C269.721 57.9902 269.523 57.9676 269.354 57.8766C269.185 57.7856 269.058 57.6333 268.997 57.451C268.937 57.2687 268.949 57.0702 269.031 56.8966C269.838 55.3905 270.26 53.7085 270.26 52C270.26 50.2915 269.838 48.6095 269.031 47.1034C268.938 46.9279 268.917 46.7223 268.975 46.5319C269.033 46.3415 269.164 46.1819 269.34 46.0881C269.515 45.9944 269.721 45.9742 269.911 46.0321C270.102 46.0899 270.261 46.221 270.355 46.3966L270.35 46.3994ZM267.725 47.8994C268.399 49.162 268.751 50.5709 268.751 52.0019C268.751 53.4328 268.399 54.8417 267.725 56.1044C267.68 56.1931 267.618 56.2718 267.541 56.3361C267.465 56.4004 267.377 56.4488 267.282 56.4787C267.187 56.5086 267.087 56.5192 266.988 56.51C266.889 56.5008 266.793 56.472 266.705 56.4252C266.617 56.3784 266.539 56.3145 266.476 56.2374C266.413 56.1603 266.366 56.0713 266.338 55.9759C266.31 55.8804 266.301 55.7802 266.312 55.6812C266.323 55.5823 266.353 55.4864 266.402 55.3994C266.959 54.3538 267.251 53.1869 267.251 52.0019C267.251 50.8168 266.959 49.65 266.402 48.6044C266.353 48.5173 266.323 48.4215 266.312 48.3225C266.301 48.2235 266.31 48.1234 266.338 48.0279C266.366 47.9324 266.413 47.8435 266.476 47.7663C266.539 47.6892 266.617 47.6254 266.705 47.5786C266.793 47.5318 266.889 47.5029 266.988 47.4937C267.087 47.4845 267.187 47.4952 267.282 47.5251C267.377 47.5549 267.465 47.6034 267.541 47.6677C267.618 47.7319 267.68 47.8107 267.725 47.8994Z" fill="#F9FAFB"/>
</g>
</g>
<rect x="24.5" y="20.5" width="279" height="167" rx="15.5" stroke="#374151"/>
</g>
<defs>
<filter id="filter0_d_107_201" x="0" y="0" width="328" height="216" filterUnits="userSpaceOnUse" color-interpolation-filters="sRGB">
<feFlood flood-opacity="0" result="BackgroundImageFix"/>
<feColorMatrix in="SourceAlpha" type="matrix" values="0 0 0 0 0 0 0 0 0 0 0 0 0 0 0 0 0 0 127 0" result="hardAlpha"/>
<feOffset dy="4"/>
<feGaussianBlur stdDeviation="12"/>
<feComposite in2="hardAlpha" operator="out"/>
<feColorMatrix type="matrix" values="0 0 0 0 0 0 0 0 0 0 0 0 0 0 0 0 0 0 0.25 0"/>
<feBlend mode="normal" in2="BackgroundImageFix" result="effect1_dropShadow_107_201"/>
<feBlend mode="normal" in="SourceGraphic" in2="effect1_dropShadow_107_201" result="shape"/>
</filter>
<filter id="filter1_b_107_201" x="-24" y="-28" width="376" height="264" filterUnits="userSpaceOnUse" color-interpolation-filters="sRGB">
<feFlood flood-opacity="0" result="BackgroundImageFix"/>
<feGaussianBlur in="BackgroundImageFix" stdDeviation="24"/>
<feComposite in2="SourceAlpha" operator="in" result="effect1_backgroundBlur_107_201"/>
<feBlend mode="normal" in="SourceGraphic" in2="effect1_backgroundBlur_107_201" result="shape"/>
</filter>
<clipPath id="clip0_107_201">
<rect x="24" y="20" width="280" height="168" rx="16" fill="white"/>
</clipPath>
<clipPath id="clip1_107_201">
<rect width="32" height="32" fill="white" transform="translate(48 36)"/>
</clipPath>
</defs>
</svg>
